<svg width="65" height="65" viewBox="0 0 65 65" fill="none" xmlns="http://www.w3.org/2000/svg">
<g clip-path="url(#clip0_210_6269)">
<path fill-rule="evenodd" clip-rule="evenodd" d="M32.4995 20.3342C34.3868 20.3342 35.9167 21.8641 35.9167 23.7514C35.9167 25.6387 34.3868 27.1686 32.4995 27.1686C32.3379 27.1686 32.179 27.1572 32.0234 27.1355C33.6853 26.9038 34.9646 25.4771 34.9646 23.7514C34.9646 22.0258 33.6853 20.5991 32.0234 20.3674C32.1791 20.3458 32.3379 20.3342 32.4995 20.3342Z" fill="#F1CBBC"/>
<path fill-rule="evenodd" clip-rule="evenodd" d="M30.7807 42.1263H31.9752C32.3088 42.1263 32.5558 41.824 32.4891 41.4971C31.8611 38.4144 29.1349 36.0947 25.8667 36.0947C25.6655 36.0947 25.4663 36.1036 25.2695 36.1209C28.2682 36.3835 30.7053 38.6043 31.2947 41.4972C31.3613 41.824 31.1142 42.1263 30.7807 42.1263Z" fill="#60B7FF"/>
<path fill-rule="evenodd" clip-rule="evenodd" d="M25.8667 29.2603C27.754 29.2603 29.2839 30.7902 29.2839 32.6775C29.2839 34.5647 27.754 36.0946 25.8667 36.0946C25.7051 36.0946 25.5463 36.0832 25.3906 36.0615C27.0524 35.8298 28.3317 34.4031 28.3317 32.6775C28.3317 30.9518 27.0524 29.5251 25.3906 29.2934C25.5463 29.2718 25.7051 29.2603 25.8667 29.2603Z" fill="#F1CBBC"/>
<path fill-rule="evenodd" clip-rule="evenodd" d="M44.0463 42.1263H45.2408C45.5745 42.1263 45.8214 41.824 45.7547 41.4971C45.1267 38.4144 42.4005 36.0947 39.1323 36.0947C38.9311 36.0947 38.7319 36.1036 38.5352 36.1209C41.5338 36.3835 43.9709 38.6043 44.5604 41.4972C44.6269 41.824 44.3799 42.1263 44.0463 42.1263Z" fill="#60B7FF"/>
<path fill-rule="evenodd" clip-rule="evenodd" d="M39.1323 29.2603C41.0196 29.2603 42.5495 30.7902 42.5495 32.6775C42.5495 34.5647 41.0196 36.0946 39.1323 36.0946C38.9707 36.0946 38.8118 36.0832 38.6562 36.0615C40.3181 35.8298 41.5974 34.4031 41.5974 32.6775C41.5974 30.9518 40.3181 29.5251 38.6562 29.2934C38.8118 29.2718 38.9707 29.2603 39.1323 29.2603Z" fill="#F1CBBC"/>
<path fill-rule="evenodd" clip-rule="evenodd" d="M51.0525 39.1333C57.6345 39.1333 62.9702 44.469 62.9702 51.051C62.9702 57.633 57.6345 62.9688 51.0525 62.9688C50.8515 62.9688 50.6517 62.9637 50.4531 62.9538C56.7566 62.6416 61.7715 57.4319 61.7715 51.051C61.7715 44.6701 56.7566 39.4605 50.4531 39.1483C50.6517 39.1385 50.8515 39.1333 51.0525 39.1333Z" fill="#00E499"/>
<path fill-rule="evenodd" clip-rule="evenodd" d="M52.4889 38.1979C53.9655 38.3628 55.3684 38.7752 56.6556 39.3948C56.7572 39.0416 56.8468 38.6867 56.9305 38.3323C57.0082 38.0061 57.2413 37.739 57.5579 37.6189L61.9559 35.9266V29.0733L57.5579 27.381C57.2411 27.2603 57.0082 26.9938 56.9364 26.6693C56.315 24.0819 55.2974 21.6187 53.8997 19.3504C53.724 19.0642 53.7002 18.7116 53.8357 18.4045L55.7491 14.0956L50.9047 9.25119L46.5933 11.1658C46.2874 11.3015 45.9342 11.277 45.6485 11.1018C43.3786 9.70429 40.9172 8.68358 38.3322 8.06812C38.006 7.99042 37.7395 7.75797 37.6188 7.44604L35.9265 3.04687H29.0738L27.3815 7.44604C27.2608 7.75797 26.9943 7.99042 26.6692 8.06812C24.083 8.68358 21.6216 9.70416 19.3515 11.1019C19.0658 11.277 18.7133 11.3015 18.4068 11.1659L14.0973 9.25132L9.25107 14.0957L11.1657 18.4059C11.3012 18.713 11.2774 19.0656 11.1023 19.3518C9.70468 21.6201 8.68398 24.0833 8.068 26.6676C7.99094 26.9939 7.75849 27.2604 7.44479 27.3811L3.04675 29.0734V35.9267L7.44479 37.619C7.75734 37.7391 7.99094 38.0062 8.068 38.3313C8.6841 40.9181 9.70468 43.3813 11.1023 45.6502C11.2774 45.9358 11.3014 46.2884 11.1657 46.5955L9.25107 50.9044L14.0973 55.7488L18.4068 53.8347C18.7134 53.6985 19.0659 53.7224 19.3515 53.8981C21.6216 55.2957 24.0829 56.3164 26.6692 56.9324C26.9943 57.0094 27.2608 57.2419 27.3815 57.5544L29.0738 61.9531H35.9265L37.6188 57.5557C37.7395 57.2432 38.006 57.0096 38.3322 56.9325C38.6866 56.8482 39.0422 56.7544 39.3965 56.6541C38.7757 55.3682 38.3627 53.9651 38.1991 52.4891C36.3533 53.0132 34.4429 53.2797 32.5003 53.2797C21.0427 53.2797 11.7209 43.9579 11.7209 32.4997C11.7209 21.0429 21.0429 11.7204 32.5003 11.7204C43.9576 11.7204 53.2802 21.0429 53.2802 32.4997C53.2801 34.4411 53.0147 36.3528 52.4889 38.1979ZM61.9559 51.0519C61.9559 45.0393 57.062 40.1489 51.0518 40.1489C45.0411 40.1489 40.1494 45.0393 40.1494 51.0519C40.1494 57.0626 45.0411 61.9531 51.0518 61.9531C57.0619 61.9531 61.9559 57.0628 61.9559 51.0519ZM25.8643 37.1056H25.8667H25.8697C28.3759 37.1074 30.5211 38.7297 31.2548 41.0286H20.4792C21.213 38.7298 23.3581 37.1075 25.8643 37.1056ZM39.1336 35.0746C37.8333 35.0746 36.7762 34.017 36.7762 32.7161C36.7762 31.4158 37.8333 30.3582 39.1336 30.3582C40.4344 30.3582 41.4921 31.4158 41.4921 32.7161C41.4921 34.0168 40.4344 35.0746 39.1336 35.0746ZM32.4989 28.18H32.5001H32.5013C33.8523 28.18 35.1305 28.6557 36.1428 29.509C35.4251 30.1794 34.9315 31.0847 34.7893 32.1029H30.2127C30.0692 31.0847 29.5763 30.1794 28.8592 29.509C29.8697 28.6556 31.1478 28.18 32.4989 28.18ZM30.1427 23.791C30.1427 22.4896 31.1999 21.4325 32.5001 21.4325C33.8004 21.4325 34.858 22.4895 34.858 23.791C34.858 25.0901 33.8015 26.1471 32.5013 26.1489H32.5001C31.1999 26.1471 30.1427 25.09 30.1427 23.791ZM23.5093 32.7172C23.5093 31.4157 24.567 30.358 25.8667 30.358C27.167 30.358 28.2247 31.4157 28.2247 32.7172C28.2247 34.0157 27.1682 35.0733 25.868 35.0746H25.8667H25.8656C24.5658 35.0733 23.5093 34.0157 23.5093 32.7172ZM32.5001 38.8654C31.6964 37.4946 30.4828 36.4053 29.033 35.751C29.471 35.2956 29.8099 34.7448 30.0196 34.134H34.9804C35.1901 34.7446 35.5302 35.2956 35.9687 35.751C34.5174 36.4053 33.3037 37.4946 32.5001 38.8654ZM42.8873 41.0286H33.7472C34.4803 38.7281 36.6274 37.1056 39.1336 37.1056C41.2513 37.1056 43.1718 38.2906 44.1392 40.125C43.7036 40.4017 43.2859 40.7034 42.8873 41.0286ZM32.5001 51.2486C34.4273 51.2486 36.3191 50.9576 38.1357 50.3863C38.2755 47.6291 39.283 45.0973 40.8892 43.0603H19.2338C18.9452 43.0603 18.6697 42.9367 18.4784 42.7221C18.2854 42.5076 18.1928 42.2219 18.2227 41.9351C18.5227 39.1422 20.2848 36.8404 22.7007 35.7511C21.9442 34.963 21.4782 33.8939 21.4782 32.7173C21.4782 30.2961 23.4471 28.327 25.8666 28.327C26.2568 28.327 26.6339 28.3791 26.9942 28.4747C27.6724 27.7762 28.4666 27.2217 29.3377 26.829C28.5783 26.0396 28.1116 24.9694 28.1116 23.791C28.1116 21.3703 30.0805 19.4007 32.5 19.4007C34.9212 19.4007 36.889 21.3703 36.889 23.791C36.889 24.9694 36.4217 26.0396 35.6634 26.829C36.5334 27.2215 37.3282 27.7761 38.007 28.4747C38.3661 28.3791 38.7449 28.327 39.1333 28.327C41.5546 28.327 43.5236 30.296 43.5236 32.7161C43.5236 33.8956 43.0551 34.9671 42.2956 35.7563C43.8373 36.4531 45.1279 37.6482 45.9329 39.1756C47.3115 38.5786 48.812 38.2153 50.3866 38.134C50.9578 36.3186 51.2488 34.4268 51.2488 32.4997C51.2488 22.1621 42.8377 13.7516 32.5 13.7516C22.1623 13.7516 13.7518 22.1621 13.7518 32.4997C13.7518 42.8379 22.1625 51.2486 32.5001 51.2486ZM63.3363 37.5718C63.7246 37.4206 63.9816 37.0435 63.9816 36.6234V28.3766C63.9816 27.9565 63.7246 27.5794 63.3363 27.4283L58.7769 25.6763C58.1495 23.2424 57.1874 20.9155 55.9069 18.7459L57.8866 14.2834C58.0599 13.8991 57.9762 13.4498 57.6773 13.1522L51.8477 7.32125C51.5507 7.02431 51.1013 6.94052 50.7165 7.11203L46.2528 9.09352C44.0819 7.81649 41.7574 6.8533 39.3254 6.22222L37.5722 1.66714C37.421 1.2746 37.0439 1.01587 36.6238 1.01587H28.3764C27.9563 1.01587 27.5793 1.2746 27.4299 1.66714L25.6755 6.22222C23.2441 6.8533 20.9184 7.81649 18.7487 9.09352L14.2838 7.11203C13.899 6.94052 13.4507 7.02418 13.1537 7.32125L7.32164 13.1522C7.0247 13.4498 6.94091 13.8992 7.11255 14.2834L9.0953 18.747C7.8165 20.9168 6.85204 23.2424 6.22223 25.6751L1.66702 27.4295C1.27499 27.5795 1.01562 27.9565 1.01562 28.3766V36.6234C1.01562 37.0435 1.27499 37.4206 1.66702 37.5718L6.22223 39.325C6.85204 41.7577 7.8165 44.0846 9.09403 46.2542L7.11255 50.7167C6.94104 51.101 7.0247 51.551 7.32164 51.8479L13.1537 57.6789C13.4507 57.9758 13.8988 58.0596 14.2838 57.8879L18.7487 55.9065C20.9184 57.1835 23.2441 58.1473 25.6755 58.7783L27.4299 63.3328C27.5793 63.7255 27.9563 63.9841 28.3764 63.9841H36.6238C37.0439 63.9841 37.421 63.7254 37.5722 63.3328L39.3254 58.7795C39.7036 58.6804 40.0808 58.5734 40.4548 58.4581C42.796 61.7972 46.6736 63.9842 51.0518 63.9842C58.1854 63.9842 63.9816 58.1826 63.9816 51.052C63.9816 46.6719 61.7946 42.7963 58.4542 40.455C58.5736 40.0804 58.6813 39.7033 58.7769 39.325L63.3363 37.5718Z" fill="#32335A"/>
<path d="M60.6671 60.3317C65.9028 55.096 65.9028 46.6071 60.6671 41.3714C55.4313 36.1356 46.9425 36.1357 41.7067 41.3714C36.471 46.6071 36.471 55.096 41.7067 60.3317C46.9425 65.5675 55.4313 65.5675 60.6671 60.3317Z" fill="#7FEBA1"/>
<path fill-rule="evenodd" clip-rule="evenodd" d="M50.3119 51.7902L54.7109 47.3918C55.2315 46.8711 56.0811 46.8696 56.6055 47.386C57.1297 47.9021 57.1314 48.7407 56.6113 49.2604C54.8275 51.0428 53.0557 52.8368 51.2637 54.611C50.7398 55.1297 49.8899 55.1296 49.3661 54.611L46.3929 51.6676C45.869 51.149 45.869 50.3076 46.3929 49.789C46.9168 49.2702 47.7666 49.2702 48.2905 49.789L50.3119 51.7902Z" fill="#32335A"/>
</g>
<defs>
<clipPath id="clip0_210_6269">
<rect width="65" height="65" fill="white"/>
</clipPath>
</defs>
</svg>
