<svg width="88" height="67" viewBox="0 0 88 67" fill="none" xmlns="http://www.w3.org/2000/svg">
<path d="M78.6305 38.2578L72.1712 37.4278C68.123 36.9077 64.009 37.3769 60.1822 38.7955L59.3306 39.1111C57.5711 39.7634 56.6493 41.6965 57.2499 43.4743C57.688 44.7704 58.847 45.6881 60.209 45.8172L67.1881 46.4786L54.9442 55.8161L45.6709 55.6497C43.9158 55.6182 42.4132 56.902 42.1704 58.6405C41.9365 60.3144 42.9421 61.9136 44.5522 62.4279L54.8352 65.7127C55.9849 66.08 57.228 66.0232 58.3394 65.5527L78.7269 56.9211L78.6305 38.2578Z" stroke="#32335A" stroke-width="1.5" stroke-miterlimit="10" stroke-linecap="round" stroke-linejoin="round"/>
<path d="M59.2155 52.5496L48.2684 52.567C46.5131 52.5347 45.0108 53.8188 44.7679 55.5571C44.7583 55.6229 44.7514 55.6896 44.7461 55.7551" stroke="#32335A" stroke-width="1.5" stroke-miterlimit="10" stroke-linecap="round" stroke-linejoin="round"/>
<path d="M63.087 49.6058L63.0862 49.6062L52.7109 49.623C50.9721 49.5924 49.4813 50.8518 49.2188 52.5662" stroke="#32335A" stroke-width="1.5" stroke-miterlimit="10" stroke-linecap="round" stroke-linejoin="round"/>
<path d="M87.0435 38.6082L87.14 57.2715L78.7292 56.9215L78.6328 38.2582L87.0435 38.6082Z" stroke="#32335A" stroke-width="1.5" stroke-miterlimit="10" stroke-linecap="round" stroke-linejoin="round"/>
<path d="M19.8614 5.55851L29.7983 1.35156C30.909 0.881725 32.1533 0.824253 33.3027 1.19207L43.5859 4.4766C45.0399 4.94068 45.9997 6.29127 45.9997 7.78123C45.9997 7.94072 45.9896 8.10164 45.9665 8.264C45.7238 10.0025 44.2224 11.2856 42.4666 11.254L33.1935 11.0887L20.9491 20.4251L27.9291 21.0874C28.6101 21.1521 29.2394 21.4136 29.7552 21.8202C30.2695 22.2283 30.6676 22.7814 30.8874 23.4294C31.488 25.2082 30.567 27.1407 28.8069 27.793L27.9549 28.1091C24.1287 29.5272 20.0152 29.997 15.9663 29.4769L9.50772 28.6464L9.41016 9.98385L15.9002 7.23669" stroke="#32335A" stroke-width="1.5" stroke-miterlimit="10" stroke-linecap="round" stroke-linejoin="round"/>
<path d="M43.3757 11.1492C43.3704 11.2148 43.3635 11.2813 43.3538 11.3471C43.111 13.0856 41.6087 14.3695 39.8534 14.3374L28.9062 14.3547" stroke="#32335A" stroke-width="1.5" stroke-miterlimit="10" stroke-linecap="round" stroke-linejoin="round"/>
<path d="M38.9269 14.3389C38.6644 16.0532 37.1735 17.3125 35.4346 17.2819L25.0593 17.2987L25.0586 17.2993" stroke="#32335A" stroke-width="1.5" stroke-miterlimit="10" stroke-linecap="round" stroke-linejoin="round"/>
<path d="M1.09641 28.2965L1 9.63317L9.41074 9.98318L9.50715 28.6465L1.09641 28.2965Z" stroke="#32335A" stroke-width="1.5" stroke-miterlimit="10" stroke-linecap="round" stroke-linejoin="round"/>
<path d="M67.8298 25.9436C68.3507 25.9436 68.773 25.5214 68.773 25.0005C68.773 24.4796 68.3507 24.0574 67.8298 24.0574C67.309 24.0574 66.8867 24.4796 66.8867 25.0005C66.8867 25.5214 67.309 25.9436 67.8298 25.9436Z" fill="#32335A"/>
<path d="M65.7713 28.9815C66.2921 28.9815 66.7144 28.5592 66.7144 28.0383C66.7144 27.5175 66.2921 27.0952 65.7713 27.0952C65.2504 27.0952 64.8281 27.5175 64.8281 28.0383C64.8281 28.5592 65.2504 28.9815 65.7713 28.9815Z" fill="#32335A"/>
<path d="M68.5369 22.3247C69.0578 22.3247 69.48 21.9025 69.48 21.3816C69.48 20.8607 69.0578 20.4385 68.5369 20.4385C68.016 20.4385 67.5938 20.8607 67.5938 21.3816C67.5938 21.9025 68.016 22.3247 68.5369 22.3247Z" fill="#32335A"/>
<path d="M62.7166 31.042C63.2374 31.042 63.6597 30.6198 63.6597 30.0989C63.6597 29.578 63.2374 29.1558 62.7166 29.1558C62.1957 29.1558 61.7734 29.578 61.7734 30.0989C61.7734 30.6198 62.1957 31.042 62.7166 31.042Z" fill="#32335A"/>
<path d="M59.1096 29.866C57.7512 29.8677 56.4123 29.5433 55.2053 28.9201C53.9983 28.2969 52.9585 27.3932 52.1732 26.2848C51.3879 25.1764 50.8802 23.8957 50.6925 22.5503C50.5049 21.205 50.6429 19.8343 51.0949 18.5533C51.5469 17.2723 52.2998 16.1186 53.2902 15.1889C54.2806 14.2593 55.4797 13.5809 56.7867 13.2108C58.0937 12.8407 59.4704 12.7897 60.8012 13.062C62.132 13.3344 63.378 13.9221 64.4345 14.7759H62.8821C62.632 14.7759 62.3921 14.8753 62.2152 15.0522C62.0383 15.229 61.939 15.4689 61.939 15.7191C61.939 15.9692 62.0383 16.2091 62.2152 16.386C62.3921 16.5628 62.632 16.6622 62.8821 16.6622H66.6546C66.9047 16.6622 67.1446 16.5628 67.3215 16.386C67.4984 16.2091 67.5977 15.9692 67.5977 15.7191V11.9465C67.5977 11.6964 67.4984 11.4565 67.3215 11.2797C67.1446 11.1028 66.9047 11.0034 66.6546 11.0034C66.4045 11.0034 66.1646 11.1028 65.9877 11.2797C65.8108 11.4565 65.7115 11.6964 65.7115 11.9465V13.3905C64.429 12.3302 62.9101 11.5941 61.2832 11.2444C59.6562 10.8947 57.9691 10.9417 56.3641 11.3814C54.7592 11.8211 53.2836 12.6406 52.0621 13.7706C50.8406 14.9007 49.909 16.3081 49.3459 17.8741C48.7829 19.44 48.605 21.1184 48.8273 22.7676C49.0496 24.4168 49.6654 25.9882 50.6229 27.3492C51.5804 28.7102 52.8514 29.8208 54.3285 30.5872C55.8056 31.3535 57.4455 31.7532 59.1096 31.7523C59.3597 31.7523 59.5996 31.6529 59.7765 31.476C59.9533 31.2992 60.0527 31.0593 60.0527 30.8091C60.0527 30.559 59.9533 30.3191 59.7765 30.1423C59.5996 29.9654 59.3597 29.866 59.1096 29.866Z" fill="#32335A"/>
<path d="M62.6073 24.874C62.7841 24.6971 62.8834 24.4573 62.8834 24.2072C62.8834 23.9571 62.7841 23.7172 62.6073 23.5404L60.0542 20.9873V15.719C60.0542 15.4689 59.9549 15.229 59.778 15.0521C59.6011 14.8752 59.3612 14.7759 59.1111 14.7759C58.861 14.7759 58.6211 14.8752 58.4442 15.0521C58.2673 15.229 58.168 15.4689 58.168 15.719V21.3778C58.168 21.6279 58.2674 21.8678 58.4443 22.0446L61.2737 24.874C61.4506 25.0508 61.6904 25.1501 61.9405 25.1501C62.1906 25.1501 62.4304 25.0508 62.6073 24.874Z" fill="#32335A"/>
<circle cx="33.0751" cy="36.0909" r="15.8446" fill="#7FEBA1"/>
<path d="M36.8947 29.5901C36.8947 29.5901 35.0447 28.1849 32.1932 28.8924C29.575 29.542 28.9247 32.4925 30.704 33.6418C31.7256 34.3017 33.2629 34.8442 35.3347 35.4474C39.9715 36.7973 38.2574 42.183 33.5407 42.2088C31.7001 42.2189 30.8395 42.1226 29.2227 41.2515" stroke="#32335A" stroke-width="1.5" stroke-miterlimit="10" stroke-linecap="round" stroke-linejoin="round"/>
<path d="M33.5352 44.1753V42.2086" stroke="#32335A" stroke-width="1.5" stroke-miterlimit="10" stroke-linecap="round" stroke-linejoin="round"/>
<path d="M33.5352 28.7002V26.8747" stroke="#32335A" stroke-width="1.5" stroke-miterlimit="10" stroke-linecap="round" stroke-linejoin="round"/>
</svg>
